solid OpenSCAD_Model
  facet normal 0 0 -1
    outer loop
      vertex 16 0 0
      vertex 135 100 0
      vertex 135 0 0
    endloop
  endfacet
  facet normal 0 0 -1
    outer loop
      vertex 16 0 0
      vertex 16 100 0
      vertex 135 100 0
    endloop
  endfacet
  facet normal 0 0 -1
    outer loop
      vertex 0 6 0
      vertex 16 100 0
      vertex 16 0 0
    endloop
  endfacet
  facet normal 0 0 -1
    outer loop
      vertex 16 100 0
      vertex 0 6 0
      vertex 0 94 0
    endloop
  endfacet
  facet normal 1 -0 0
    outer loop
      vertex 135 0 2
      vertex 135 100 0
      vertex 135 100 2
    endloop
  endfacet
  facet normal 1 0 0
    outer loop
      vertex 135 100 0
      vertex 135 0 2
      vertex 135 0 0
    endloop
  endfacet
  facet normal -0.351123 -0.936329 0
    outer loop
      vertex 0 6 0
      vertex 16 0 2
      vertex 0 6 2
    endloop
  endfacet
  facet normal -0.351123 -0.936329 -0
    outer loop
      vertex 16 0 2
      vertex 0 6 0
      vertex 16 0 0
    endloop
  endfacet
  facet normal -1 0 0
    outer loop
      vertex 0 94 0
      vertex 0 92 2
      vertex 0 94 2
    endloop
  endfacet
  facet normal -1 0 0
    outer loop
      vertex 0 92 2
      vertex 0 90 2
      vertex 0 92 18
    endloop
  endfacet
  facet normal -1 0 0
    outer loop
      vertex 0 94 0
      vertex 0 90 2
      vertex 0 92 2
    endloop
  endfacet
  facet normal -1 0 0
    outer loop
      vertex 0 94 0
      vertex 0 10 2
      vertex 0 90 2
    endloop
  endfacet
  facet normal -1 0 0
    outer loop
      vertex 0 10 2
      vertex 0 8 2
      vertex 0 10 18
    endloop
  endfacet
  facet normal -1 0 0
    outer loop
      vertex 0 6 0
      vertex 0 10 2
      vertex 0 94 0
    endloop
  endfacet
  facet normal -1 -0 0
    outer loop
      vertex 0 10 2
      vertex 0 6 0
      vertex 0 8 2
    endloop
  endfacet
  facet normal -1 -0 0
    outer loop
      vertex 0 8 2
      vertex 0 6 0
      vertex 0 6 2
    endloop
  endfacet
  facet normal -1 -0 0
    outer loop
      vertex 0 92 18
      vertex 0 90 2
      vertex 0 90 18
    endloop
  endfacet
  facet normal -1 -0 0
    outer loop
      vertex 0 10 18
      vertex 0 8 2
      vertex 0 8 18
    endloop
  endfacet
  facet normal 0 0 1
    outer loop
      vertex 135 100 2
      vertex 133 98 2
      vertex 135 0 2
    endloop
  endfacet
  facet normal -0 0 1
    outer loop
      vertex 16 100 2
      vertex 133 98 2
      vertex 135 100 2
    endloop
  endfacet
  facet normal 0 0 1
    outer loop
      vertex 16 100 2
      vertex 16 98 2
      vertex 133 98 2
    endloop
  endfacet
  facet normal 0 0 1
    outer loop
      vertex 0 94 2
      vertex 16 98 2
      vertex 16 100 2
    endloop
  endfacet
  facet normal 0 0 1
    outer loop
      vertex 16 98 2
      vertex 0 94 2
      vertex 0 92 2
    endloop
  endfacet
  facet normal -0 0 1
    outer loop
      vertex 133 2 2
      vertex 135 0 2
      vertex 133 98 2
    endloop
  endfacet
  facet normal 0 0 1
    outer loop
      vertex 16 0 2
      vertex 133 2 2
      vertex 16 2 2
    endloop
  endfacet
  facet normal 0 0 1
    outer loop
      vertex 133 2 2
      vertex 16 0 2
      vertex 135 0 2
    endloop
  endfacet
  facet normal -0 0 1
    outer loop
      vertex 0 6 2
      vertex 16 2 2
      vertex 0 8 2
    endloop
  endfacet
  facet normal 0 0 1
    outer loop
      vertex 16 2 2
      vertex 0 6 2
      vertex 16 0 2
    endloop
  endfacet
  facet normal 0 0 1
    outer loop
      vertex 16 96 2
      vertex 132 97 2
      vertex 16 97 2
    endloop
  endfacet
  facet normal 0 0 1
    outer loop
      vertex 132 97 2
      vertex 16 96 2
      vertex 132 90 2
    endloop
  endfacet
  facet normal 0 0 1
    outer loop
      vertex 16 96 2
      vertex 8 90 2
      vertex 132 90 2
    endloop
  endfacet
  facet normal 0 0 1
    outer loop
      vertex 8 90 2
      vertex 0 90 2
      vertex 8 15 2
    endloop
  endfacet
  facet normal 0 0 1
    outer loop
      vertex 0 90 2
      vertex 8 90 2
      vertex 16 96 2
    endloop
  endfacet
  facet normal 0 0 1
    outer loop
      vertex 132 86 2
      vertex 83.8 50 2
      vertex 132 16 2
    endloop
  endfacet
  facet normal 0 0 1
    outer loop
      vertex 132 86 2
      vertex 82.9 51.5588 2
      vertex 83.8 50 2
    endloop
  endfacet
  facet normal 0 0 1
    outer loop
      vertex 132 86 2
      vertex 81.1 51.5588 2
      vertex 82.9 51.5588 2
    endloop
  endfacet
  facet normal 0 0 1
    outer loop
      vertex 10 86 2
      vertex 80.2 50 2
      vertex 81.1 51.5588 2
    endloop
  endfacet
  facet normal 0 0 1
    outer loop
      vertex 36 16 2
      vertex 16 4 2
      vertex 36 12 2
    endloop
  endfacet
  facet normal 0 0 1
    outer loop
      vertex 80.2 50 2
      vertex 10 86 2
      vertex 36 16 2
    endloop
  endfacet
  facet normal -0 0 1
    outer loop
      vertex 10 86 2
      vertex 81.1 51.5588 2
      vertex 132 86 2
    endloop
  endfacet
  facet normal 0 0 1
    outer loop
      vertex 36 16 2
      vertex 10 86 2
      vertex 10 15 2
    endloop
  endfacet
  facet normal 0 0 1
    outer loop
      vertex 36 16 2
      vertex 10 15 2
      vertex 16 4 2
    endloop
  endfacet
  facet normal -0 0 1
    outer loop
      vertex 8 15 2
      vertex 16 4 2
      vertex 10 15 2
    endloop
  endfacet
  facet normal 0 0 1
    outer loop
      vertex 8 15 2
      vertex 0 10 2
      vertex 16 4 2
    endloop
  endfacet
  facet normal 0 0 1
    outer loop
      vertex 0 10 2
      vertex 8 15 2
      vertex 0 90 2
    endloop
  endfacet
  facet normal -0 0 1
    outer loop
      vertex 82.9 48.4412 2
      vertex 132 16 2
      vertex 83.8 50 2
    endloop
  endfacet
  facet normal 0 0 1
    outer loop
      vertex 36 16 2
      vertex 82.9 48.4412 2
      vertex 81.1 48.4412 2
    endloop
  endfacet
  facet normal 0 0 1
    outer loop
      vertex 82.9 48.4412 2
      vertex 36 16 2
      vertex 132 16 2
    endloop
  endfacet
  facet normal 0 0 1
    outer loop
      vertex 36 16 2
      vertex 81.1 48.4412 2
      vertex 80.2 50 2
    endloop
  endfacet
  facet normal -0 0 1
    outer loop
      vertex 36 12 2
      vertex 132 3 2
      vertex 132 12 2
    endloop
  endfacet
  facet normal 0 0 1
    outer loop
      vertex 16 3 2
      vertex 36 12 2
      vertex 16 4 2
    endloop
  endfacet
  facet normal 0 0 1
    outer loop
      vertex 36 12 2
      vertex 16 3 2
      vertex 132 3 2
    endloop
  endfacet
  facet normal 0 -1 0
    outer loop
      vertex 16 0 0
      vertex 135 0 2
      vertex 16 0 2
    endloop
  endfacet
  facet normal 0 -1 -0
    outer loop
      vertex 135 0 2
      vertex 16 0 0
      vertex 135 0 0
    endloop
  endfacet
  facet normal -0.351123 0.936329 0
    outer loop
      vertex 16 100 0
      vertex 0 94 2
      vertex 16 100 2
    endloop
  endfacet
  facet normal -0.351123 0.936329 0
    outer loop
      vertex 0 94 2
      vertex 16 100 0
      vertex 0 94 0
    endloop
  endfacet
  facet normal 0 1 -0
    outer loop
      vertex 135 100 0
      vertex 16 100 2
      vertex 135 100 2
    endloop
  endfacet
  facet normal 0 1 0
    outer loop
      vertex 16 100 2
      vertex 135 100 0
      vertex 16 100 0
    endloop
  endfacet
  facet normal 0 -1 0
    outer loop
      vertex 81.1 48.4412 2
      vertex 82.9 48.4412 14
      vertex 81.1 48.4412 14
    endloop
  endfacet
  facet normal 0 -1 -0
    outer loop
      vertex 82.9 48.4412 14
      vertex 81.1 48.4412 2
      vertex 82.9 48.4412 2
    endloop
  endfacet
  facet normal 0 1 -0
    outer loop
      vertex 82.9 51.5588 2
      vertex 81.1 51.5588 14
      vertex 82.9 51.5588 14
    endloop
  endfacet
  facet normal 0 1 0
    outer loop
      vertex 81.1 51.5588 14
      vertex 82.9 51.5588 2
      vertex 81.1 51.5588 2
    endloop
  endfacet
  facet normal 0.866019 0.500011 0
    outer loop
      vertex 83.8 50 14
      vertex 82.9 51.5588 2
      vertex 82.9 51.5588 14
    endloop
  endfacet
  facet normal 0.866019 0.500011 0
    outer loop
      vertex 82.9 51.5588 2
      vertex 83.8 50 14
      vertex 83.8 50 2
    endloop
  endfacet
  facet normal 0 0 1
    outer loop
      vertex 82.9 51.5588 14
      vertex 82.9 48.4412 14
      vertex 83.8 50 14
    endloop
  endfacet
  facet normal -0 0 1
    outer loop
      vertex 81.1 51.5588 14
      vertex 82.9 48.4412 14
      vertex 82.9 51.5588 14
    endloop
  endfacet
  facet normal 0 0 1
    outer loop
      vertex 81.1 51.5588 14
      vertex 81.1 48.4412 14
      vertex 82.9 48.4412 14
    endloop
  endfacet
  facet normal 0 -0 1
    outer loop
      vertex 81.1 48.4412 14
      vertex 81.1 51.5588 14
      vertex 80.2 50 14
    endloop
  endfacet
  facet normal -0.866019 0.500011 0
    outer loop
      vertex 80.2 50 2
      vertex 81.1 51.5588 14
      vertex 81.1 51.5588 2
    endloop
  endfacet
  facet normal -0.866019 0.500011 0
    outer loop
      vertex 81.1 51.5588 14
      vertex 80.2 50 2
      vertex 80.2 50 14
    endloop
  endfacet
  facet normal 0.866019 -0.500011 0
    outer loop
      vertex 82.9 48.4412 14
      vertex 83.8 50 2
      vertex 83.8 50 14
    endloop
  endfacet
  facet normal 0.866019 -0.500011 0
    outer loop
      vertex 83.8 50 2
      vertex 82.9 48.4412 14
      vertex 82.9 48.4412 2
    endloop
  endfacet
  facet normal -0.866019 -0.500011 0
    outer loop
      vertex 81.1 48.4412 2
      vertex 80.2 50 14
      vertex 80.2 50 2
    endloop
  endfacet
  facet normal -0.866019 -0.500011 0
    outer loop
      vertex 80.2 50 14
      vertex 81.1 48.4412 2
      vertex 81.1 48.4412 14
    endloop
  endfacet
  facet normal 1 -0 0
    outer loop
      vertex 133 2 6
      vertex 133 98 2
      vertex 133 98 6
    endloop
  endfacet
  facet normal 1 0 0
    outer loop
      vertex 133 98 2
      vertex 133 2 6
      vertex 133 2 2
    endloop
  endfacet
  facet normal 0 0 1
    outer loop
      vertex 132 90 6
      vertex 133 98 6
      vertex 132 97 6
    endloop
  endfacet
  facet normal -0 0 1
    outer loop
      vertex 16 98 6
      vertex 132 97 6
      vertex 133 98 6
    endloop
  endfacet
  facet normal 0 0 1
    outer loop
      vertex 132 97 6
      vertex 16 98 6
      vertex 16 97 6
    endloop
  endfacet
  facet normal 0 0 1
    outer loop
      vertex 132 86 6
      vertex 133 98 6
      vertex 132 90 6
    endloop
  endfacet
  facet normal 0 0 1
    outer loop
      vertex 132 16 6
      vertex 133 98 6
      vertex 132 86 6
    endloop
  endfacet
  facet normal 0 0 1
    outer loop
      vertex 133 98 6
      vertex 132 16 6
      vertex 133 2 6
    endloop
  endfacet
  facet normal -0 0 1
    outer loop
      vertex 132 12 6
      vertex 133 2 6
      vertex 132 16 6
    endloop
  endfacet
  facet normal -0 0 1
    outer loop
      vertex 132 3 6
      vertex 133 2 6
      vertex 132 12 6
    endloop
  endfacet
  facet normal 0 0 1
    outer loop
      vertex 16 2 6
      vertex 132 3 6
      vertex 16 3 6
    endloop
  endfacet
  facet normal 0 0 1
    outer loop
      vertex 132 3 6
      vertex 16 2 6
      vertex 133 2 6
    endloop
  endfacet
  facet normal 1 0 0
    outer loop
      vertex 16 4 18
      vertex 16 3 6
      vertex 16 4 2
    endloop
  endfacet
  facet normal 1 -0 0
    outer loop
      vertex 16 2 18
      vertex 16 3 6
      vertex 16 4 18
    endloop
  endfacet
  facet normal 1 0 0
    outer loop
      vertex 16 3 6
      vertex 16 2 18
      vertex 16 2 6
    endloop
  endfacet
  facet normal 1 0 0
    outer loop
      vertex 16 4 2
      vertex 16 3 6
      vertex 16 3 2
    endloop
  endfacet
  facet normal 0 1 -0
    outer loop
      vertex 132 3 2
      vertex 16 3 6
      vertex 132 3 6
    endloop
  endfacet
  facet normal 0 1 0
    outer loop
      vertex 16 3 6
      vertex 132 3 2
      vertex 16 3 2
    endloop
  endfacet
  facet normal 0 -1 0
    outer loop
      vertex 16 2 2
      vertex 133 2 6
      vertex 16 2 6
    endloop
  endfacet
  facet normal 0 -1 -0
    outer loop
      vertex 133 2 6
      vertex 16 2 2
      vertex 133 2 2
    endloop
  endfacet
  facet normal 1 -0 0
    outer loop
      vertex 132 86 7.4
      vertex 132 90 6
      vertex 132 90 7.4
    endloop
  endfacet
  facet normal 1 0 0
    outer loop
      vertex 132 90 6
      vertex 132 86 7.4
      vertex 132 86 6
    endloop
  endfacet
  facet normal -1 0 0
    outer loop
      vertex 132 90 2
      vertex 132 97 6
      vertex 132 97 2
    endloop
  endfacet
  facet normal -1 -0 0
    outer loop
      vertex 132 97 6
      vertex 132 90 2
      vertex 132 90 6
    endloop
  endfacet
  facet normal -1 0 0
    outer loop
      vertex 132 16 2
      vertex 132 86 6
      vertex 132 86 2
    endloop
  endfacet
  facet normal -1 -0 0
    outer loop
      vertex 132 86 6
      vertex 132 16 2
      vertex 132 16 6
    endloop
  endfacet
  facet normal 1 -0 0
    outer loop
      vertex 132 12 7.4
      vertex 132 16 6
      vertex 132 16 7.4
    endloop
  endfacet
  facet normal 1 0 0
    outer loop
      vertex 132 16 6
      vertex 132 12 7.4
      vertex 132 12 6
    endloop
  endfacet
  facet normal -1 0 0
    outer loop
      vertex 132 3 2
      vertex 132 12 6
      vertex 132 12 2
    endloop
  endfacet
  facet normal -1 -0 0
    outer loop
      vertex 132 12 6
      vertex 132 3 2
      vertex 132 3 6
    endloop
  endfacet
  facet normal 0 1 -0
    outer loop
      vertex 133 98 2
      vertex 16 98 6
      vertex 133 98 6
    endloop
  endfacet
  facet normal 0 1 0
    outer loop
      vertex 16 98 6
      vertex 133 98 2
      vertex 16 98 2
    endloop
  endfacet
  facet normal 1 0 0
    outer loop
      vertex 16 98 18
      vertex 16 97 6
      vertex 16 98 6
    endloop
  endfacet
  facet normal 1 -0 0
    outer loop
      vertex 16 96 18
      vertex 16 97 6
      vertex 16 98 18
    endloop
  endfacet
  facet normal 1 0 0
    outer loop
      vertex 16 96 2
      vertex 16 97 6
      vertex 16 96 18
    endloop
  endfacet
  facet normal 1 0 0
    outer loop
      vertex 16 97 6
      vertex 16 96 2
      vertex 16 97 2
    endloop
  endfacet
  facet normal 0 -1 0
    outer loop
      vertex 16 97 2
      vertex 132 97 6
      vertex 16 97 6
    endloop
  endfacet
  facet normal 0 -1 -0
    outer loop
      vertex 132 97 6
      vertex 16 97 2
      vertex 132 97 2
    endloop
  endfacet
  facet normal 0 0 1
    outer loop
      vertex 0 92 18
      vertex 16 96 18
      vertex 16 98 18
    endloop
  endfacet
  facet normal 0 0 1
    outer loop
      vertex 16 96 18
      vertex 0 92 18
      vertex 0 90 18
    endloop
  endfacet
  facet normal -0 0 1
    outer loop
      vertex 0 8 18
      vertex 16 4 18
      vertex 0 10 18
    endloop
  endfacet
  facet normal 0 0 1
    outer loop
      vertex 16 4 18
      vertex 0 8 18
      vertex 16 2 18
    endloop
  endfacet
  facet normal -0.351123 0.936329 0
    outer loop
      vertex 16 98 6
      vertex 0 92 18
      vertex 16 98 18
    endloop
  endfacet
  facet normal -0.351123 0.936329 0
    outer loop
      vertex 0 92 2
      vertex 16 98 6
      vertex 16 98 2
    endloop
  endfacet
  facet normal -0.351123 0.936329 0
    outer loop
      vertex 16 98 6
      vertex 0 92 2
      vertex 0 92 18
    endloop
  endfacet
  facet normal 0.351123 -0.936329 0
    outer loop
      vertex 0 90 2
      vertex 16 96 18
      vertex 0 90 18
    endloop
  endfacet
  facet normal 0.351123 -0.936329 0
    outer loop
      vertex 16 96 18
      vertex 0 90 2
      vertex 16 96 2
    endloop
  endfacet
  facet normal 0.351123 0.936329 -0
    outer loop
      vertex 16 4 2
      vertex 0 10 18
      vertex 16 4 18
    endloop
  endfacet
  facet normal 0.351123 0.936329 0
    outer loop
      vertex 0 10 18
      vertex 16 4 2
      vertex 0 10 2
    endloop
  endfacet
  facet normal -0.351123 -0.936329 0
    outer loop
      vertex 0 8 18
      vertex 16 2 6
      vertex 16 2 18
    endloop
  endfacet
  facet normal -0.351123 -0.936329 0
    outer loop
      vertex 0 8 2
      vertex 16 2 6
      vertex 0 8 18
    endloop
  endfacet
  facet normal -0.351123 -0.936329 -0
    outer loop
      vertex 16 2 6
      vertex 0 8 2
      vertex 16 2 2
    endloop
  endfacet
  facet normal 1 -0 0
    outer loop
      vertex 10 15 7.4
      vertex 10 86 2
      vertex 10 86 7.4
    endloop
  endfacet
  facet normal 1 0 0
    outer loop
      vertex 10 86 2
      vertex 10 15 7.4
      vertex 10 15 2
    endloop
  endfacet
  facet normal 0 0 1
    outer loop
      vertex 132 90 7.4
      vertex 10 86 7.4
      vertex 132 86 7.4
    endloop
  endfacet
  facet normal -0 0 1
    outer loop
      vertex 8 90 7.4
      vertex 10 86 7.4
      vertex 132 90 7.4
    endloop
  endfacet
  facet normal 0 0 1
    outer loop
      vertex 8 15 7.4
      vertex 10 86 7.4
      vertex 8 90 7.4
    endloop
  endfacet
  facet normal 0 0 1
    outer loop
      vertex 10 86 7.4
      vertex 8 15 7.4
      vertex 10 15 7.4
    endloop
  endfacet
  facet normal -1 0 0
    outer loop
      vertex 8 15 2
      vertex 8 90 7.4
      vertex 8 90 2
    endloop
  endfacet
  facet normal -1 -0 0
    outer loop
      vertex 8 90 7.4
      vertex 8 15 2
      vertex 8 15 7.4
    endloop
  endfacet
  facet normal 0 -1 0
    outer loop
      vertex 8 15 2
      vertex 10 15 7.4
      vertex 8 15 7.4
    endloop
  endfacet
  facet normal 0 -1 -0
    outer loop
      vertex 10 15 7.4
      vertex 8 15 2
      vertex 10 15 2
    endloop
  endfacet
  facet normal -0 0 1
    outer loop
      vertex 36 16 7.4
      vertex 132 12 7.4
      vertex 132 16 7.4
    endloop
  endfacet
  facet normal 0 0 1
    outer loop
      vertex 132 12 7.4
      vertex 36 16 7.4
      vertex 36 12 7.4
    endloop
  endfacet
  facet normal -1 0 0
    outer loop
      vertex 36 12 2
      vertex 36 16 7.4
      vertex 36 16 2
    endloop
  endfacet
  facet normal -1 -0 0
    outer loop
      vertex 36 16 7.4
      vertex 36 12 2
      vertex 36 12 7.4
    endloop
  endfacet
  facet normal 0 1 -0
    outer loop
      vertex 132 16 6
      vertex 36 16 7.4
      vertex 132 16 7.4
    endloop
  endfacet
  facet normal 0 1 0
    outer loop
      vertex 36 16 2
      vertex 132 16 6
      vertex 132 16 2
    endloop
  endfacet
  facet normal 0 1 0
    outer loop
      vertex 132 16 6
      vertex 36 16 2
      vertex 36 16 7.4
    endloop
  endfacet
  facet normal 0 -1 0
    outer loop
      vertex 36 12 7.4
      vertex 132 12 6
      vertex 132 12 7.4
    endloop
  endfacet
  facet normal 0 -1 0
    outer loop
      vertex 36 12 2
      vertex 132 12 6
      vertex 36 12 7.4
    endloop
  endfacet
  facet normal 0 -1 -0
    outer loop
      vertex 132 12 6
      vertex 36 12 2
      vertex 132 12 2
    endloop
  endfacet
  facet normal 0 1 -0
    outer loop
      vertex 132 90 6
      vertex 8 90 7.4
      vertex 132 90 7.4
    endloop
  endfacet
  facet normal 0 1 0
    outer loop
      vertex 8 90 2
      vertex 132 90 6
      vertex 132 90 2
    endloop
  endfacet
  facet normal 0 1 0
    outer loop
      vertex 132 90 6
      vertex 8 90 2
      vertex 8 90 7.4
    endloop
  endfacet
  facet normal 0 -1 0
    outer loop
      vertex 10 86 7.4
      vertex 132 86 6
      vertex 132 86 7.4
    endloop
  endfacet
  facet normal 0 -1 0
    outer loop
      vertex 10 86 2
      vertex 132 86 6
      vertex 10 86 7.4
    endloop
  endfacet
  facet normal 0 -1 -0
    outer loop
      vertex 132 86 6
      vertex 10 86 2
      vertex 132 86 2
    endloop
  endfacet
endsolid OpenSCAD_Model
