solid OpenSCAD_Model
  facet normal 1 -0 0
    outer loop
      vertex 135 0 20
      vertex 135 100 0
      vertex 135 100 20
    endloop
  endfacet
  facet normal 1 0 0
    outer loop
      vertex 135 100 0
      vertex 135 0 20
      vertex 135 0 0
    endloop
  endfacet
  facet normal 0 0 1
    outer loop
      vertex 135 100 20
      vertex 133 98 20
      vertex 135 0 20
    endloop
  endfacet
  facet normal -0 0 1
    outer loop
      vertex 16 100 20
      vertex 133 98 20
      vertex 135 100 20
    endloop
  endfacet
  facet normal 0 0 1
    outer loop
      vertex 16 100 20
      vertex 16 98 20
      vertex 133 98 20
    endloop
  endfacet
  facet normal 0 0 1
    outer loop
      vertex 0 94 20
      vertex 16 98 20
      vertex 16 100 20
    endloop
  endfacet
  facet normal 0 0 1
    outer loop
      vertex 16 98 20
      vertex 0 94 20
      vertex 0 92 20
    endloop
  endfacet
  facet normal -0 0 1
    outer loop
      vertex 133 2 20
      vertex 135 0 20
      vertex 133 98 20
    endloop
  endfacet
  facet normal 0 0 1
    outer loop
      vertex 16 0 20
      vertex 133 2 20
      vertex 16 2 20
    endloop
  endfacet
  facet normal 0 0 1
    outer loop
      vertex 133 2 20
      vertex 16 0 20
      vertex 135 0 20
    endloop
  endfacet
  facet normal -0 0 1
    outer loop
      vertex 0 6 20
      vertex 16 2 20
      vertex 0 8 20
    endloop
  endfacet
  facet normal 0 0 1
    outer loop
      vertex 16 2 20
      vertex 0 6 20
      vertex 16 0 20
    endloop
  endfacet
  facet normal 0 0 -1
    outer loop
      vertex 135 0 0
      vertex 84.45 50 0
      vertex 135 100 0
    endloop
  endfacet
  facet normal 0 0 -1
    outer loop
      vertex 135 0 0
      vertex 83.7324 48.2676 0
      vertex 84.45 50 0
    endloop
  endfacet
  facet normal 0 0 -1
    outer loop
      vertex 135 0 0
      vertex 82 47.55 0
      vertex 83.7324 48.2676 0
    endloop
  endfacet
  facet normal 0 0 -1
    outer loop
      vertex 16 0 0
      vertex 82 47.55 0
      vertex 135 0 0
    endloop
  endfacet
  facet normal -0 0 -1
    outer loop
      vertex 80.2676 48.2676 0
      vertex 16 0 0
      vertex 79.55 50 0
    endloop
  endfacet
  facet normal -0 0 -1
    outer loop
      vertex 82 47.55 0
      vertex 16 0 0
      vertex 80.2676 48.2676 0
    endloop
  endfacet
  facet normal 0 0 -1
    outer loop
      vertex 83.7324 51.7324 0
      vertex 135 100 0
      vertex 84.45 50 0
    endloop
  endfacet
  facet normal 0 0 -1
    outer loop
      vertex 82 52.45 0
      vertex 135 100 0
      vertex 83.7324 51.7324 0
    endloop
  endfacet
  facet normal 0 0 -1
    outer loop
      vertex 16 100 0
      vertex 82 52.45 0
      vertex 80.2676 51.7324 0
    endloop
  endfacet
  facet normal 0 0 -1
    outer loop
      vertex 16 100 0
      vertex 79.55 50 0
      vertex 16 0 0
    endloop
  endfacet
  facet normal 0 0 -1
    outer loop
      vertex 79.55 50 0
      vertex 16 100 0
      vertex 80.2676 51.7324 0
    endloop
  endfacet
  facet normal 0 0 -1
    outer loop
      vertex 82 52.45 0
      vertex 16 100 0
      vertex 135 100 0
    endloop
  endfacet
  facet normal 0 0 -1
    outer loop
      vertex 0 6 0
      vertex 16 100 0
      vertex 16 0 0
    endloop
  endfacet
  facet normal 0 0 -1
    outer loop
      vertex 16 100 0
      vertex 0 6 0
      vertex 0 94 0
    endloop
  endfacet
  facet normal 0 1 -0
    outer loop
      vertex 133 2 2
      vertex 16 2 20
      vertex 133 2 20
    endloop
  endfacet
  facet normal 0 1 0
    outer loop
      vertex 16 2 20
      vertex 133 2 2
      vertex 16 2 2
    endloop
  endfacet
  facet normal 0 -1 0
    outer loop
      vertex 16 0 0
      vertex 135 0 20
      vertex 16 0 20
    endloop
  endfacet
  facet normal 0 -1 -0
    outer loop
      vertex 135 0 20
      vertex 16 0 0
      vertex 135 0 0
    endloop
  endfacet
  facet normal -1 0 0
    outer loop
      vertex 133 10 2
      vertex 133 2 2
      vertex 133 10 13
    endloop
  endfacet
  facet normal -1 0 0
    outer loop
      vertex 133 88 13
      vertex 133 98 2
      vertex 133 88 2
    endloop
  endfacet
  facet normal -1 0 0
    outer loop
      vertex 133 98 2
      vertex 133 88 13
      vertex 133 98 20
    endloop
  endfacet
  facet normal -1 0 0
    outer loop
      vertex 133 2 20
      vertex 133 88 13
      vertex 133 10 13
    endloop
  endfacet
  facet normal -1 0 0
    outer loop
      vertex 133 88 13
      vertex 133 2 20
      vertex 133 98 20
    endloop
  endfacet
  facet normal -1 0 0
    outer loop
      vertex 133 2 20
      vertex 133 10 13
      vertex 133 2 2
    endloop
  endfacet
  facet normal 0 1 -0
    outer loop
      vertex 135 100 0
      vertex 16 100 20
      vertex 135 100 20
    endloop
  endfacet
  facet normal 0 1 0
    outer loop
      vertex 16 100 20
      vertex 135 100 0
      vertex 16 100 0
    endloop
  endfacet
  facet normal 0 -1 0
    outer loop
      vertex 16 98 2
      vertex 133 98 20
      vertex 16 98 20
    endloop
  endfacet
  facet normal 0 -1 -0
    outer loop
      vertex 133 98 20
      vertex 16 98 2
      vertex 133 98 2
    endloop
  endfacet
  facet normal -0.351123 0.936329 0
    outer loop
      vertex 16 100 0
      vertex 0 94 20
      vertex 16 100 20
    endloop
  endfacet
  facet normal -0.351123 0.936329 0
    outer loop
      vertex 0 94 20
      vertex 16 100 0
      vertex 0 94 0
    endloop
  endfacet
  facet normal -1 0 0
    outer loop
      vertex 0 94 0
      vertex 0 92 2
      vertex 0 94 20
    endloop
  endfacet
  facet normal -1 0 0
    outer loop
      vertex 0 94 0
      vertex 0 8 2
      vertex 0 92 2
    endloop
  endfacet
  facet normal -1 0 0
    outer loop
      vertex 0 6 0
      vertex 0 8 2
      vertex 0 94 0
    endloop
  endfacet
  facet normal -1 0 0
    outer loop
      vertex 0 6 20
      vertex 0 8 2
      vertex 0 6 0
    endloop
  endfacet
  facet normal -1 0 0
    outer loop
      vertex 0 8 2
      vertex 0 6 20
      vertex 0 8 20
    endloop
  endfacet
  facet normal -1 -0 0
    outer loop
      vertex 0 94 20
      vertex 0 92 2
      vertex 0 92 20
    endloop
  endfacet
  facet normal 0.351123 -0.936329 0
    outer loop
      vertex 0 92 2
      vertex 16 98 20
      vertex 0 92 20
    endloop
  endfacet
  facet normal 0.351123 -0.936329 0
    outer loop
      vertex 16 98 20
      vertex 0 92 2
      vertex 16 98 2
    endloop
  endfacet
  facet normal 0.351123 0.936329 -0
    outer loop
      vertex 16 2 2
      vertex 0 8 20
      vertex 16 2 20
    endloop
  endfacet
  facet normal 0.351123 0.936329 0
    outer loop
      vertex 0 8 20
      vertex 16 2 2
      vertex 0 8 2
    endloop
  endfacet
  facet normal -0.351123 -0.936329 0
    outer loop
      vertex 0 6 0
      vertex 16 0 20
      vertex 0 6 20
    endloop
  endfacet
  facet normal -0.351123 -0.936329 -0
    outer loop
      vertex 16 0 20
      vertex 0 6 0
      vertex 16 0 0
    endloop
  endfacet
  facet normal -0 0 1
    outer loop
      vertex 10 33 2
      vertex 77 27 2
      vertex 77 33 2
    endloop
  endfacet
  facet normal 0 0 1
    outer loop
      vertex 77 27 2
      vertex 10 33 2
      vertex 10 27 2
    endloop
  endfacet
  facet normal -0 0 1
    outer loop
      vertex 10 62 2
      vertex 77 54 2
      vertex 77 62 2
    endloop
  endfacet
  facet normal 0 0 1
    outer loop
      vertex 77 54 2
      vertex 10 62 2
      vertex 10 54 2
    endloop
  endfacet
  facet normal 0 0 1
    outer loop
      vertex 77 62 2
      vertex 87 62 2
      vertex 87 84 2
    endloop
  endfacet
  facet normal 0 -0 1
    outer loop
      vertex 82.4821 53.9708 2
      vertex 87 62 2
      vertex 77 62 2
    endloop
  endfacet
  facet normal 0 0 1
    outer loop
      vertex 87 54 2
      vertex 86 50 2
      vertex 87 33 2
    endloop
  endfacet
  facet normal -0 0 1
    outer loop
      vertex 85.5418 48.1411 2
      vertex 87 33 2
      vertex 86 50 2
    endloop
  endfacet
  facet normal -0 0 1
    outer loop
      vertex 84.2723 46.7081 2
      vertex 87 33 2
      vertex 85.5418 48.1411 2
    endloop
  endfacet
  facet normal 0 0 1
    outer loop
      vertex 87 54 2
      vertex 85.5418 51.8589 2
      vertex 86 50 2
    endloop
  endfacet
  facet normal 0 0 1
    outer loop
      vertex 87 54 2
      vertex 84.2723 53.2919 2
      vertex 85.5418 51.8589 2
    endloop
  endfacet
  facet normal 0 0 1
    outer loop
      vertex 87 62 2
      vertex 82.4821 53.9708 2
      vertex 87 54 2
    endloop
  endfacet
  facet normal 0 0 1
    outer loop
      vertex 87 54 2
      vertex 82.4821 53.9708 2
      vertex 84.2723 53.2919 2
    endloop
  endfacet
  facet normal 0 0 1
    outer loop
      vertex 82.4821 53.9708 2
      vertex 77 62 2
      vertex 80.5816 53.7401 2
    endloop
  endfacet
  facet normal -0 0 1
    outer loop
      vertex 77 54 2
      vertex 80.5816 53.7401 2
      vertex 77 62 2
    endloop
  endfacet
  facet normal 0 0 1
    outer loop
      vertex 80.5816 53.7401 2
      vertex 77 54 2
      vertex 79.006 52.6525 2
    endloop
  endfacet
  facet normal 0 0 1
    outer loop
      vertex 77 62 2
      vertex 87 84 2
      vertex 77 84 2
    endloop
  endfacet
  facet normal -0 0 1
    outer loop
      vertex 87 62 2
      vertex 130 54 2
      vertex 130 62 2
    endloop
  endfacet
  facet normal 0 0 1
    outer loop
      vertex 130 54 2
      vertex 87 62 2
      vertex 87 54 2
    endloop
  endfacet
  facet normal -0 0 1
    outer loop
      vertex 87 33 2
      vertex 130 27 2
      vertex 130 33 2
    endloop
  endfacet
  facet normal 0 0 1
    outer loop
      vertex 130 27 2
      vertex 87 33 2
      vertex 87 27 2
    endloop
  endfacet
  facet normal -0 0 1
    outer loop
      vertex 82.4821 46.0292 2
      vertex 87 33 2
      vertex 84.2723 46.7081 2
    endloop
  endfacet
  facet normal 0 0 1
    outer loop
      vertex 77 33 2
      vertex 87 33 2
      vertex 82.4821 46.0292 2
    endloop
  endfacet
  facet normal 0 0 1
    outer loop
      vertex 87 33 2
      vertex 77 33 2
      vertex 87 27 2
    endloop
  endfacet
  facet normal 0 0 1
    outer loop
      vertex 77 33 2
      vertex 82.4821 46.0292 2
      vertex 80.5816 46.2599 2
    endloop
  endfacet
  facet normal 0 0 1
    outer loop
      vertex 77 33 2
      vertex 80.5816 46.2599 2
      vertex 79.006 47.3475 2
    endloop
  endfacet
  facet normal 0 0 1
    outer loop
      vertex 77 33 2
      vertex 79.006 47.3475 2
      vertex 78.1162 49.0427 2
    endloop
  endfacet
  facet normal 0 0 1
    outer loop
      vertex 79.006 52.6525 2
      vertex 77 54 2
      vertex 78.1162 50.9573 2
    endloop
  endfacet
  facet normal 0 0 1
    outer loop
      vertex 78.1162 50.9573 2
      vertex 77 54 2
      vertex 78.1162 49.0427 2
    endloop
  endfacet
  facet normal 0 0 1
    outer loop
      vertex 77 33 2
      vertex 78.1162 49.0427 2
      vertex 77 54 2
    endloop
  endfacet
  facet normal 0 0 1
    outer loop
      vertex 77 27 2
      vertex 87 27 2
      vertex 77 33 2
    endloop
  endfacet
  facet normal 0 0 1
    outer loop
      vertex 87 27 2
      vertex 77 27 2
      vertex 87 14 2
    endloop
  endfacet
  facet normal 0 0 1
    outer loop
      vertex 87 14 2
      vertex 77 27 2
      vertex 77 14 2
    endloop
  endfacet
  facet normal -0 0 1
    outer loop
      vertex 16 98 2
      vertex 133 88 2
      vertex 133 98 2
    endloop
  endfacet
  facet normal 0 0 1
    outer loop
      vertex 16 98 2
      vertex 8 88 2
      vertex 133 88 2
    endloop
  endfacet
  facet normal 0 0 1
    outer loop
      vertex 0 8 2
      vertex 8 88 2
      vertex 0 92 2
    endloop
  endfacet
  facet normal -0 0 1
    outer loop
      vertex 0 92 2
      vertex 8 88 2
      vertex 16 98 2
    endloop
  endfacet
  facet normal 0 0 1
    outer loop
      vertex 133 10 2
      vertex 16 2 2
      vertex 133 2 2
    endloop
  endfacet
  facet normal -0 0 1
    outer loop
      vertex 8 10 2
      vertex 16 2 2
      vertex 133 10 2
    endloop
  endfacet
  facet normal 0 0 1
    outer loop
      vertex 8 10 2
      vertex 0 8 2
      vertex 16 2 2
    endloop
  endfacet
  facet normal 0 0 1
    outer loop
      vertex 8 88 2
      vertex 0 8 2
      vertex 8 10 2
    endloop
  endfacet
  facet normal -1 0 0
    outer loop
      vertex 130 27 1
      vertex 130 14 1
      vertex 130 27 2
    endloop
  endfacet
  facet normal -1 0 0
    outer loop
      vertex 130 54 1
      vertex 130 33 1
      vertex 130 54 2
    endloop
  endfacet
  facet normal -1 0 0
    outer loop
      vertex 130 62 2
      vertex 130 84 1
      vertex 130 62 1
    endloop
  endfacet
  facet normal -1 0 0
    outer loop
      vertex 130 84 1
      vertex 130 62 2
      vertex 130 84 11
    endloop
  endfacet
  facet normal -1 0 0
    outer loop
      vertex 130 54 2
      vertex 130 84 11
      vertex 130 62 2
    endloop
  endfacet
  facet normal -1 0 0
    outer loop
      vertex 130 33 2
      vertex 130 54 2
      vertex 130 33 1
    endloop
  endfacet
  facet normal -1 0 0
    outer loop
      vertex 130 14 11
      vertex 130 54 2
      vertex 130 33 2
    endloop
  endfacet
  facet normal -1 0 0
    outer loop
      vertex 130 14 11
      vertex 130 33 2
      vertex 130 27 2
    endloop
  endfacet
  facet normal -1 0 0
    outer loop
      vertex 130 14 11
      vertex 130 27 2
      vertex 130 14 1
    endloop
  endfacet
  facet normal -1 0 0
    outer loop
      vertex 130 54 2
      vertex 130 14 11
      vertex 130 84 11
    endloop
  endfacet
  facet normal -0 0 1
    outer loop
      vertex 87 84 1
      vertex 130 62 1
      vertex 130 84 1
    endloop
  endfacet
  facet normal 0 0 1
    outer loop
      vertex 130 62 1
      vertex 87 84 1
      vertex 87 62 1
    endloop
  endfacet
  facet normal -0 0 1
    outer loop
      vertex 87 27 1
      vertex 130 14 1
      vertex 130 27 1
    endloop
  endfacet
  facet normal 0 0 1
    outer loop
      vertex 130 14 1
      vertex 87 27 1
      vertex 87 14 1
    endloop
  endfacet
  facet normal -0 0 1
    outer loop
      vertex 10 27 1
      vertex 77 14 1
      vertex 77 27 1
    endloop
  endfacet
  facet normal 0 0 1
    outer loop
      vertex 77 14 1
      vertex 10 27 1
      vertex 10 14 1
    endloop
  endfacet
  facet normal -0 0 1
    outer loop
      vertex 10 84 1
      vertex 77 62 1
      vertex 77 84 1
    endloop
  endfacet
  facet normal 0 0 1
    outer loop
      vertex 77 62 1
      vertex 10 84 1
      vertex 10 62 1
    endloop
  endfacet
  facet normal -0 0 1
    outer loop
      vertex 10 54 1
      vertex 77 33 1
      vertex 77 54 1
    endloop
  endfacet
  facet normal 0 0 1
    outer loop
      vertex 77 33 1
      vertex 10 54 1
      vertex 10 33 1
    endloop
  endfacet
  facet normal -0 0 1
    outer loop
      vertex 87 54 1
      vertex 130 33 1
      vertex 130 54 1
    endloop
  endfacet
  facet normal 0 0 1
    outer loop
      vertex 130 33 1
      vertex 87 54 1
      vertex 87 33 1
    endloop
  endfacet
  facet normal 1 0 0
    outer loop
      vertex 10 84 11
      vertex 10 62 2
      vertex 10 84 1
    endloop
  endfacet
  facet normal 1 0 0
    outer loop
      vertex 10 84 11
      vertex 10 54 2
      vertex 10 62 2
    endloop
  endfacet
  facet normal 1 0 0
    outer loop
      vertex 10 54 2
      vertex 10 33 2
      vertex 10 54 1
    endloop
  endfacet
  facet normal 1 -0 0
    outer loop
      vertex 10 14 11
      vertex 10 54 2
      vertex 10 84 11
    endloop
  endfacet
  facet normal 1 0 0
    outer loop
      vertex 10 54 2
      vertex 10 14 11
      vertex 10 33 2
    endloop
  endfacet
  facet normal 1 0 0
    outer loop
      vertex 10 33 2
      vertex 10 14 11
      vertex 10 27 2
    endloop
  endfacet
  facet normal 1 0 0
    outer loop
      vertex 10 14 1
      vertex 10 27 2
      vertex 10 14 11
    endloop
  endfacet
  facet normal 1 0 0
    outer loop
      vertex 10 27 2
      vertex 10 14 1
      vertex 10 27 1
    endloop
  endfacet
  facet normal 1 0 0
    outer loop
      vertex 10 84 1
      vertex 10 62 2
      vertex 10 62 1
    endloop
  endfacet
  facet normal 1 0 0
    outer loop
      vertex 10 54 1
      vertex 10 33 2
      vertex 10 33 1
    endloop
  endfacet
  facet normal 0 -1 0
    outer loop
      vertex 10 84 11
      vertex 77 84 2
      vertex 130 84 11
    endloop
  endfacet
  facet normal 0 -1 0
    outer loop
      vertex 10 84 1
      vertex 77 84 2
      vertex 10 84 11
    endloop
  endfacet
  facet normal 0 -1 -0
    outer loop
      vertex 77 84 2
      vertex 10 84 1
      vertex 77 84 1
    endloop
  endfacet
  facet normal 0 -1 0
    outer loop
      vertex 87 84 2
      vertex 130 84 11
      vertex 77 84 2
    endloop
  endfacet
  facet normal 0 -1 0
    outer loop
      vertex 130 84 1
      vertex 87 84 2
      vertex 87 84 1
    endloop
  endfacet
  facet normal 0 -1 0
    outer loop
      vertex 87 84 2
      vertex 130 84 1
      vertex 130 84 11
    endloop
  endfacet
  facet normal 0 1 0
    outer loop
      vertex 77 14 2
      vertex 130 14 11
      vertex 87 14 2
    endloop
  endfacet
  facet normal 0 1 -0
    outer loop
      vertex 130 14 1
      vertex 87 14 2
      vertex 130 14 11
    endloop
  endfacet
  facet normal 0 1 0
    outer loop
      vertex 87 14 2
      vertex 130 14 1
      vertex 87 14 1
    endloop
  endfacet
  facet normal 0 1 0
    outer loop
      vertex 130 14 11
      vertex 77 14 2
      vertex 10 14 11
    endloop
  endfacet
  facet normal 0 1 0
    outer loop
      vertex 10 14 1
      vertex 77 14 2
      vertex 77 14 1
    endloop
  endfacet
  facet normal 0 1 0
    outer loop
      vertex 77 14 2
      vertex 10 14 1
      vertex 10 14 11
    endloop
  endfacet
  facet normal 0 1 -0
    outer loop
      vertex 77 62 1
      vertex 10 62 2
      vertex 77 62 2
    endloop
  endfacet
  facet normal 0 1 0
    outer loop
      vertex 10 62 2
      vertex 77 62 1
      vertex 10 62 1
    endloop
  endfacet
  facet normal 0 1 -0
    outer loop
      vertex 130 62 1
      vertex 87 62 2
      vertex 130 62 2
    endloop
  endfacet
  facet normal 0 1 0
    outer loop
      vertex 87 62 2
      vertex 130 62 1
      vertex 87 62 1
    endloop
  endfacet
  facet normal 0 -1 0
    outer loop
      vertex 10 54 1
      vertex 77 54 2
      vertex 10 54 2
    endloop
  endfacet
  facet normal 0 -1 -0
    outer loop
      vertex 77 54 2
      vertex 10 54 1
      vertex 77 54 1
    endloop
  endfacet
  facet normal 0 -1 0
    outer loop
      vertex 87 54 1
      vertex 130 54 2
      vertex 87 54 2
    endloop
  endfacet
  facet normal 0 -1 -0
    outer loop
      vertex 130 54 2
      vertex 87 54 1
      vertex 130 54 1
    endloop
  endfacet
  facet normal 0 1 -0
    outer loop
      vertex 77 33 1
      vertex 10 33 2
      vertex 77 33 2
    endloop
  endfacet
  facet normal 0 1 0
    outer loop
      vertex 10 33 2
      vertex 77 33 1
      vertex 10 33 1
    endloop
  endfacet
  facet normal 0 1 -0
    outer loop
      vertex 130 33 1
      vertex 87 33 2
      vertex 130 33 2
    endloop
  endfacet
  facet normal 0 1 0
    outer loop
      vertex 87 33 2
      vertex 130 33 1
      vertex 87 33 1
    endloop
  endfacet
  facet normal 0 -1 0
    outer loop
      vertex 10 27 1
      vertex 77 27 2
      vertex 10 27 2
    endloop
  endfacet
  facet normal 0 -1 -0
    outer loop
      vertex 77 27 2
      vertex 10 27 1
      vertex 77 27 1
    endloop
  endfacet
  facet normal 0 -1 0
    outer loop
      vertex 87 27 1
      vertex 130 27 2
      vertex 87 27 2
    endloop
  endfacet
  facet normal 0 -1 -0
    outer loop
      vertex 130 27 2
      vertex 87 27 1
      vertex 130 27 1
    endloop
  endfacet
  facet normal 1 -0 0
    outer loop
      vertex 87 62 2
      vertex 87 84 1
      vertex 87 84 2
    endloop
  endfacet
  facet normal 1 0 0
    outer loop
      vertex 87 84 1
      vertex 87 62 2
      vertex 87 62 1
    endloop
  endfacet
  facet normal 1 -0 0
    outer loop
      vertex 87 33 2
      vertex 87 54 1
      vertex 87 54 2
    endloop
  endfacet
  facet normal 1 0 0
    outer loop
      vertex 87 54 1
      vertex 87 33 2
      vertex 87 33 1
    endloop
  endfacet
  facet normal 1 -0 0
    outer loop
      vertex 87 14 2
      vertex 87 27 1
      vertex 87 27 2
    endloop
  endfacet
  facet normal 1 0 0
    outer loop
      vertex 87 27 1
      vertex 87 14 2
      vertex 87 14 1
    endloop
  endfacet
  facet normal -1 0 0
    outer loop
      vertex 77 62 1
      vertex 77 84 2
      vertex 77 84 1
    endloop
  endfacet
  facet normal -1 -0 0
    outer loop
      vertex 77 84 2
      vertex 77 62 1
      vertex 77 62 2
    endloop
  endfacet
  facet normal -1 0 0
    outer loop
      vertex 77 33 1
      vertex 77 54 2
      vertex 77 54 1
    endloop
  endfacet
  facet normal -1 -0 0
    outer loop
      vertex 77 54 2
      vertex 77 33 1
      vertex 77 33 2
    endloop
  endfacet
  facet normal -1 0 0
    outer loop
      vertex 77 14 1
      vertex 77 27 2
      vertex 77 27 1
    endloop
  endfacet
  facet normal -1 -0 0
    outer loop
      vertex 77 27 2
      vertex 77 14 1
      vertex 77 14 2
    endloop
  endfacet
  facet normal 0 0 1
    outer loop
      vertex 132 86 11
      vertex 130 84 11
      vertex 132 12 11
    endloop
  endfacet
  facet normal 0 0 1
    outer loop
      vertex 132 86 11
      vertex 10 84 11
      vertex 130 84 11
    endloop
  endfacet
  facet normal 0 0 1
    outer loop
      vertex 10 84 11
      vertex 8 86 11
      vertex 10 14 11
    endloop
  endfacet
  facet normal -0 0 1
    outer loop
      vertex 8 86 11
      vertex 10 84 11
      vertex 132 86 11
    endloop
  endfacet
  facet normal -0 0 1
    outer loop
      vertex 130 14 11
      vertex 132 12 11
      vertex 130 84 11
    endloop
  endfacet
  facet normal -0 0 1
    outer loop
      vertex 10 14 11
      vertex 132 12 11
      vertex 130 14 11
    endloop
  endfacet
  facet normal 0 0 1
    outer loop
      vertex 10 14 11
      vertex 8 12 11
      vertex 132 12 11
    endloop
  endfacet
  facet normal 0 0 1
    outer loop
      vertex 8 12 11
      vertex 10 14 11
      vertex 8 86 11
    endloop
  endfacet
  facet normal -1 0 0
    outer loop
      vertex 8 88 2
      vertex 8 86 11
      vertex 8 88 13
    endloop
  endfacet
  facet normal -1 0 0
    outer loop
      vertex 8 88 2
      vertex 8 12 11
      vertex 8 86 11
    endloop
  endfacet
  facet normal -1 0 0
    outer loop
      vertex 8 10 2
      vertex 8 12 11
      vertex 8 88 2
    endloop
  endfacet
  facet normal -1 0 0
    outer loop
      vertex 8 10 13
      vertex 8 12 11
      vertex 8 10 2
    endloop
  endfacet
  facet normal -1 0 0
    outer loop
      vertex 8 12 11
      vertex 8 10 13
      vertex 8 12 13
    endloop
  endfacet
  facet normal -1 -0 0
    outer loop
      vertex 8 88 13
      vertex 8 86 11
      vertex 8 86 13
    endloop
  endfacet
  facet normal 0 1 -0
    outer loop
      vertex 132 12 11
      vertex 8 12 13
      vertex 132 12 13
    endloop
  endfacet
  facet normal 0 1 0
    outer loop
      vertex 8 12 13
      vertex 132 12 11
      vertex 8 12 11
    endloop
  endfacet
  facet normal -1 0 0
    outer loop
      vertex 132 12 11
      vertex 132 86 13
      vertex 132 86 11
    endloop
  endfacet
  facet normal -1 -0 0
    outer loop
      vertex 132 86 13
      vertex 132 12 11
      vertex 132 12 13
    endloop
  endfacet
  facet normal 0 -1 0
    outer loop
      vertex 8 86 11
      vertex 132 86 13
      vertex 8 86 13
    endloop
  endfacet
  facet normal 0 -1 -0
    outer loop
      vertex 132 86 13
      vertex 8 86 11
      vertex 132 86 11
    endloop
  endfacet
  facet normal -0.56808 0.822974 0
    outer loop
      vertex 80.5816 53.7401 2
      vertex 79.006 52.6525 18
      vertex 80.5816 53.7401 18
    endloop
  endfacet
  facet normal -0.56808 0.822974 0
    outer loop
      vertex 79.006 52.6525 18
      vertex 80.5816 53.7401 2
      vertex 79.006 52.6525 2
    endloop
  endfacet
  facet normal 0.748518 0.663115 0
    outer loop
      vertex 85.5418 51.8589 18
      vertex 84.2723 53.2919 2
      vertex 84.2723 53.2919 18
    endloop
  endfacet
  facet normal 0.748518 0.663115 0
    outer loop
      vertex 84.2723 53.2919 2
      vertex 85.5418 51.8589 18
      vertex 85.5418 51.8589 2
    endloop
  endfacet
  facet normal 0.970939 0.239327 0
    outer loop
      vertex 86 50 18
      vertex 85.5418 51.8589 2
      vertex 85.5418 51.8589 18
    endloop
  endfacet
  facet normal 0.970939 0.239327 0
    outer loop
      vertex 85.5418 51.8589 2
      vertex 86 50 18
      vertex 86 50 2
    endloop
  endfacet
  facet normal -1 0 0
    outer loop
      vertex 78.1162 49.0427 2
      vertex 78.1162 50.9573 18
      vertex 78.1162 50.9573 2
    endloop
  endfacet
  facet normal -1 -0 0
    outer loop
      vertex 78.1162 50.9573 18
      vertex 78.1162 49.0427 2
      vertex 78.1162 49.0427 18
    endloop
  endfacet
  facet normal -0.885437 0.46476 0
    outer loop
      vertex 78.1162 50.9573 2
      vertex 79.006 52.6525 18
      vertex 79.006 52.6525 2
    endloop
  endfacet
  facet normal -0.885437 0.46476 0
    outer loop
      vertex 79.006 52.6525 18
      vertex 78.1162 50.9573 2
      vertex 78.1162 50.9573 18
    endloop
  endfacet
  facet normal 0.970939 -0.239327 0
    outer loop
      vertex 85.5418 48.1411 18
      vertex 86 50 2
      vertex 86 50 18
    endloop
  endfacet
  facet normal 0.970939 -0.239327 0
    outer loop
      vertex 86 50 2
      vertex 85.5418 48.1411 18
      vertex 85.5418 48.1411 2
    endloop
  endfacet
  facet normal 0 0 1
    outer loop
      vertex 84.45 50 18
      vertex 86 50 18
      vertex 85.5418 51.8589 18
    endloop
  endfacet
  facet normal 0 0 1
    outer loop
      vertex 86 50 18
      vertex 84.45 50 18
      vertex 85.5418 48.1411 18
    endloop
  endfacet
  facet normal 0 0 1
    outer loop
      vertex 83.7324 51.7324 18
      vertex 85.5418 51.8589 18
      vertex 84.2723 53.2919 18
    endloop
  endfacet
  facet normal 0 0 1
    outer loop
      vertex 85.5418 51.8589 18
      vertex 83.7324 51.7324 18
      vertex 84.45 50 18
    endloop
  endfacet
  facet normal 0 0 1
    outer loop
      vertex 82 52.45 18
      vertex 84.2723 53.2919 18
      vertex 82.4821 53.9708 18
    endloop
  endfacet
  facet normal 0 0 1
    outer loop
      vertex 84.2723 53.2919 18
      vertex 82 52.45 18
      vertex 83.7324 51.7324 18
    endloop
  endfacet
  facet normal -0 0 1
    outer loop
      vertex 80.5816 53.7401 18
      vertex 82 52.45 18
      vertex 82.4821 53.9708 18
    endloop
  endfacet
  facet normal 0 0 1
    outer loop
      vertex 80.5816 53.7401 18
      vertex 80.2676 51.7324 18
      vertex 82 52.45 18
    endloop
  endfacet
  facet normal -0 0 1
    outer loop
      vertex 79.006 52.6525 18
      vertex 80.2676 51.7324 18
      vertex 80.5816 53.7401 18
    endloop
  endfacet
  facet normal 0 0 1
    outer loop
      vertex 78.1162 50.9573 18
      vertex 80.2676 51.7324 18
      vertex 79.006 52.6525 18
    endloop
  endfacet
  facet normal -0 0 1
    outer loop
      vertex 83.7324 48.2676 18
      vertex 85.5418 48.1411 18
      vertex 84.45 50 18
    endloop
  endfacet
  facet normal 0 0 1
    outer loop
      vertex 85.5418 48.1411 18
      vertex 83.7324 48.2676 18
      vertex 84.2723 46.7081 18
    endloop
  endfacet
  facet normal -0 0 1
    outer loop
      vertex 82 47.55 18
      vertex 84.2723 46.7081 18
      vertex 83.7324 48.2676 18
    endloop
  endfacet
  facet normal 0 0 1
    outer loop
      vertex 84.2723 46.7081 18
      vertex 82 47.55 18
      vertex 82.4821 46.0292 18
    endloop
  endfacet
  facet normal 0 0 1
    outer loop
      vertex 82 47.55 18
      vertex 80.5816 46.2599 18
      vertex 82.4821 46.0292 18
    endloop
  endfacet
  facet normal 0 0 1
    outer loop
      vertex 80.2676 48.2676 18
      vertex 80.5816 46.2599 18
      vertex 82 47.55 18
    endloop
  endfacet
  facet normal -0 0 1
    outer loop
      vertex 78.1162 49.0427 18
      vertex 80.2676 48.2676 18
      vertex 79.55 50 18
    endloop
  endfacet
  facet normal 0 0 1
    outer loop
      vertex 80.2676 48.2676 18
      vertex 79.006 47.3475 18
      vertex 80.5816 46.2599 18
    endloop
  endfacet
  facet normal 0 0 1
    outer loop
      vertex 80.2676 51.7324 18
      vertex 78.1162 50.9573 18
      vertex 79.55 50 18
    endloop
  endfacet
  facet normal 0 0 1
    outer loop
      vertex 78.1162 49.0427 18
      vertex 79.55 50 18
      vertex 78.1162 50.9573 18
    endloop
  endfacet
  facet normal 0 0 1
    outer loop
      vertex 80.2676 48.2676 18
      vertex 78.1162 49.0427 18
      vertex 79.006 47.3475 18
    endloop
  endfacet
  facet normal -0.120505 -0.992713 0
    outer loop
      vertex 80.5816 46.2599 2
      vertex 82.4821 46.0292 18
      vertex 80.5816 46.2599 18
    endloop
  endfacet
  facet normal -0.120505 -0.992713 -0
    outer loop
      vertex 82.4821 46.0292 18
      vertex 80.5816 46.2599 2
      vertex 82.4821 46.0292 2
    endloop
  endfacet
  facet normal 0.748518 -0.663115 0
    outer loop
      vertex 84.2723 46.7081 18
      vertex 85.5418 48.1411 2
      vertex 85.5418 48.1411 18
    endloop
  endfacet
  facet normal 0.748518 -0.663115 0
    outer loop
      vertex 85.5418 48.1411 2
      vertex 84.2723 46.7081 18
      vertex 84.2723 46.7081 2
    endloop
  endfacet
  facet normal 0.35459 -0.935022 0
    outer loop
      vertex 82.4821 46.0292 2
      vertex 84.2723 46.7081 18
      vertex 82.4821 46.0292 18
    endloop
  endfacet
  facet normal 0.35459 -0.935022 0
    outer loop
      vertex 84.2723 46.7081 18
      vertex 82.4821 46.0292 2
      vertex 84.2723 46.7081 2
    endloop
  endfacet
  facet normal -0.120505 0.992713 0
    outer loop
      vertex 82.4821 53.9708 2
      vertex 80.5816 53.7401 18
      vertex 82.4821 53.9708 18
    endloop
  endfacet
  facet normal -0.120505 0.992713 0
    outer loop
      vertex 80.5816 53.7401 18
      vertex 82.4821 53.9708 2
      vertex 80.5816 53.7401 2
    endloop
  endfacet
  facet normal 0.35459 0.935022 -0
    outer loop
      vertex 84.2723 53.2919 2
      vertex 82.4821 53.9708 18
      vertex 84.2723 53.2919 18
    endloop
  endfacet
  facet normal 0.35459 0.935022 0
    outer loop
      vertex 82.4821 53.9708 18
      vertex 84.2723 53.2919 2
      vertex 82.4821 53.9708 2
    endloop
  endfacet
  facet normal -0.56808 -0.822974 0
    outer loop
      vertex 79.006 47.3475 2
      vertex 80.5816 46.2599 18
      vertex 79.006 47.3475 18
    endloop
  endfacet
  facet normal -0.56808 -0.822974 -0
    outer loop
      vertex 80.5816 46.2599 18
      vertex 79.006 47.3475 2
      vertex 80.5816 46.2599 2
    endloop
  endfacet
  facet normal -0.885437 -0.46476 0
    outer loop
      vertex 79.006 47.3475 2
      vertex 78.1162 49.0427 18
      vertex 78.1162 49.0427 2
    endloop
  endfacet
  facet normal -0.885437 -0.46476 0
    outer loop
      vertex 78.1162 49.0427 18
      vertex 79.006 47.3475 2
      vertex 79.006 47.3475 18
    endloop
  endfacet
  facet normal 0.382691 0.923876 -0
    outer loop
      vertex 82 47.55 0
      vertex 80.2676 48.2676 18
      vertex 82 47.55 18
    endloop
  endfacet
  facet normal 0.382691 0.923876 0
    outer loop
      vertex 80.2676 48.2676 18
      vertex 82 47.55 0
      vertex 80.2676 48.2676 0
    endloop
  endfacet
  facet normal -0.382691 -0.923876 0
    outer loop
      vertex 82 52.45 0
      vertex 83.7324 51.7324 18
      vertex 82 52.45 18
    endloop
  endfacet
  facet normal -0.382691 -0.923876 -0
    outer loop
      vertex 83.7324 51.7324 18
      vertex 82 52.45 0
      vertex 83.7324 51.7324 0
    endloop
  endfacet
  facet normal -0.923876 -0.382691 0
    outer loop
      vertex 84.45 50 0
      vertex 83.7324 51.7324 18
      vertex 83.7324 51.7324 0
    endloop
  endfacet
  facet normal -0.923876 -0.382691 0
    outer loop
      vertex 83.7324 51.7324 18
      vertex 84.45 50 0
      vertex 84.45 50 18
    endloop
  endfacet
  facet normal 0.382691 -0.923876 0
    outer loop
      vertex 80.2676 51.7324 0
      vertex 82 52.45 18
      vertex 80.2676 51.7324 18
    endloop
  endfacet
  facet normal 0.382691 -0.923876 0
    outer loop
      vertex 82 52.45 18
      vertex 80.2676 51.7324 0
      vertex 82 52.45 0
    endloop
  endfacet
  facet normal -0.382691 0.923876 0
    outer loop
      vertex 83.7324 48.2676 0
      vertex 82 47.55 18
      vertex 83.7324 48.2676 18
    endloop
  endfacet
  facet normal -0.382691 0.923876 0
    outer loop
      vertex 82 47.55 18
      vertex 83.7324 48.2676 0
      vertex 82 47.55 0
    endloop
  endfacet
  facet normal -0.923876 0.382691 0
    outer loop
      vertex 83.7324 48.2676 0
      vertex 84.45 50 18
      vertex 84.45 50 0
    endloop
  endfacet
  facet normal -0.923876 0.382691 0
    outer loop
      vertex 84.45 50 18
      vertex 83.7324 48.2676 0
      vertex 83.7324 48.2676 18
    endloop
  endfacet
  facet normal 0.923876 0.382691 0
    outer loop
      vertex 80.2676 48.2676 18
      vertex 79.55 50 0
      vertex 79.55 50 18
    endloop
  endfacet
  facet normal 0.923876 0.382691 0
    outer loop
      vertex 79.55 50 0
      vertex 80.2676 48.2676 18
      vertex 80.2676 48.2676 0
    endloop
  endfacet
  facet normal 0.923876 -0.382691 0
    outer loop
      vertex 79.55 50 18
      vertex 80.2676 51.7324 0
      vertex 80.2676 51.7324 18
    endloop
  endfacet
  facet normal 0.923876 -0.382691 0
    outer loop
      vertex 80.2676 51.7324 0
      vertex 79.55 50 18
      vertex 79.55 50 0
    endloop
  endfacet
  facet normal 0 0 1
    outer loop
      vertex 133 88 13
      vertex 132 86 13
      vertex 133 10 13
    endloop
  endfacet
  facet normal -0 0 1
    outer loop
      vertex 8 88 13
      vertex 132 86 13
      vertex 133 88 13
    endloop
  endfacet
  facet normal 0 0 1
    outer loop
      vertex 132 86 13
      vertex 8 88 13
      vertex 8 86 13
    endloop
  endfacet
  facet normal -0 0 1
    outer loop
      vertex 132 12 13
      vertex 133 10 13
      vertex 132 86 13
    endloop
  endfacet
  facet normal 0 0 1
    outer loop
      vertex 8 10 13
      vertex 132 12 13
      vertex 8 12 13
    endloop
  endfacet
  facet normal 0 0 1
    outer loop
      vertex 132 12 13
      vertex 8 10 13
      vertex 133 10 13
    endloop
  endfacet
  facet normal 0 -1 0
    outer loop
      vertex 8 10 2
      vertex 133 10 13
      vertex 8 10 13
    endloop
  endfacet
  facet normal 0 -1 -0
    outer loop
      vertex 133 10 13
      vertex 8 10 2
      vertex 133 10 2
    endloop
  endfacet
  facet normal 0 1 -0
    outer loop
      vertex 133 88 2
      vertex 8 88 13
      vertex 133 88 13
    endloop
  endfacet
  facet normal 0 1 0
    outer loop
      vertex 8 88 13
      vertex 133 88 2
      vertex 8 88 2
    endloop
  endfacet
endsolid OpenSCAD_Model
