solid OpenSCAD_Model
  facet normal 0 0 -1
    outer loop
      vertex 16 0 0
      vertex 135 100 0
      vertex 135 0 0
    endloop
  endfacet
  facet normal 0 0 -1
    outer loop
      vertex 16 0 0
      vertex 16 100 0
      vertex 135 100 0
    endloop
  endfacet
  facet normal 0 0 -1
    outer loop
      vertex 0 6 0
      vertex 16 100 0
      vertex 16 0 0
    endloop
  endfacet
  facet normal 0 0 -1
    outer loop
      vertex 16 100 0
      vertex 0 6 0
      vertex 0 94 0
    endloop
  endfacet
  facet normal 1 -0 0
    outer loop
      vertex 135 0 2
      vertex 135 100 0
      vertex 135 100 2
    endloop
  endfacet
  facet normal 1 0 0
    outer loop
      vertex 135 100 0
      vertex 135 0 2
      vertex 135 0 0
    endloop
  endfacet
  facet normal -0.351123 -0.936329 0
    outer loop
      vertex 0 6 0
      vertex 16 0 2
      vertex 0 6 2
    endloop
  endfacet
  facet normal -0.351123 -0.936329 -0
    outer loop
      vertex 16 0 2
      vertex 0 6 0
      vertex 16 0 0
    endloop
  endfacet
  facet normal -1 0 0
    outer loop
      vertex 0 94 0
      vertex 0 92 2
      vertex 0 94 2
    endloop
  endfacet
  facet normal -1 0 0
    outer loop
      vertex 0 92 2
      vertex 0 90 2
      vertex 0 92 20
    endloop
  endfacet
  facet normal -1 0 0
    outer loop
      vertex 0 94 0
      vertex 0 90 2
      vertex 0 92 2
    endloop
  endfacet
  facet normal -1 0 0
    outer loop
      vertex 0 94 0
      vertex 0 10 2
      vertex 0 90 2
    endloop
  endfacet
  facet normal -1 0 0
    outer loop
      vertex 0 10 2
      vertex 0 8 2
      vertex 0 10 20
    endloop
  endfacet
  facet normal -1 0 0
    outer loop
      vertex 0 6 0
      vertex 0 10 2
      vertex 0 94 0
    endloop
  endfacet
  facet normal -1 -0 0
    outer loop
      vertex 0 10 2
      vertex 0 6 0
      vertex 0 8 2
    endloop
  endfacet
  facet normal -1 -0 0
    outer loop
      vertex 0 8 2
      vertex 0 6 0
      vertex 0 6 2
    endloop
  endfacet
  facet normal -1 -0 0
    outer loop
      vertex 0 92 20
      vertex 0 90 2
      vertex 0 90 20
    endloop
  endfacet
  facet normal -1 -0 0
    outer loop
      vertex 0 10 20
      vertex 0 8 2
      vertex 0 8 20
    endloop
  endfacet
  facet normal 0 0 1
    outer loop
      vertex 135 100 2
      vertex 133 98 2
      vertex 135 0 2
    endloop
  endfacet
  facet normal -0 0 1
    outer loop
      vertex 16 100 2
      vertex 133 98 2
      vertex 135 100 2
    endloop
  endfacet
  facet normal 0 0 1
    outer loop
      vertex 16 100 2
      vertex 16 98 2
      vertex 133 98 2
    endloop
  endfacet
  facet normal 0 0 1
    outer loop
      vertex 0 94 2
      vertex 16 98 2
      vertex 16 100 2
    endloop
  endfacet
  facet normal 0 0 1
    outer loop
      vertex 16 98 2
      vertex 0 94 2
      vertex 0 92 2
    endloop
  endfacet
  facet normal -0 0 1
    outer loop
      vertex 133 2 2
      vertex 135 0 2
      vertex 133 98 2
    endloop
  endfacet
  facet normal 0 0 1
    outer loop
      vertex 16 0 2
      vertex 133 2 2
      vertex 16 2 2
    endloop
  endfacet
  facet normal 0 0 1
    outer loop
      vertex 133 2 2
      vertex 16 0 2
      vertex 135 0 2
    endloop
  endfacet
  facet normal -0 0 1
    outer loop
      vertex 0 6 2
      vertex 16 2 2
      vertex 0 8 2
    endloop
  endfacet
  facet normal 0 0 1
    outer loop
      vertex 16 2 2
      vertex 0 6 2
      vertex 16 0 2
    endloop
  endfacet
  facet normal 0 0 1
    outer loop
      vertex 16 96 2
      vertex 132 97 2
      vertex 16 97 2
    endloop
  endfacet
  facet normal 0 0 1
    outer loop
      vertex 132 97 2
      vertex 16 96 2
      vertex 132 90 2
    endloop
  endfacet
  facet normal 0 0 1
    outer loop
      vertex 16 96 2
      vertex 8 90 2
      vertex 132 90 2
    endloop
  endfacet
  facet normal 0 0 1
    outer loop
      vertex 8 90 2
      vertex 0 90 2
      vertex 8 15 2
    endloop
  endfacet
  facet normal 0 0 1
    outer loop
      vertex 0 90 2
      vertex 8 90 2
      vertex 16 96 2
    endloop
  endfacet
  facet normal 0 0 1
    outer loop
      vertex 132 86 2
      vertex 84.3 50 2
      vertex 132 16 2
    endloop
  endfacet
  facet normal 0 0 1
    outer loop
      vertex 132 86 2
      vertex 83.6263 51.6263 2
      vertex 84.3 50 2
    endloop
  endfacet
  facet normal 0 0 1
    outer loop
      vertex 132 86 2
      vertex 82 52.3 2
      vertex 83.6263 51.6263 2
    endloop
  endfacet
  facet normal -0 0 1
    outer loop
      vertex 10 86 2
      vertex 82 52.3 2
      vertex 132 86 2
    endloop
  endfacet
  facet normal 0 0 1
    outer loop
      vertex 10 86 2
      vertex 79.7 50 2
      vertex 80.3737 51.6263 2
    endloop
  endfacet
  facet normal 0 0 1
    outer loop
      vertex 36 16 2
      vertex 16 4 2
      vertex 36 12 2
    endloop
  endfacet
  facet normal 0 0 1
    outer loop
      vertex 79.7 50 2
      vertex 10 86 2
      vertex 36 16 2
    endloop
  endfacet
  facet normal 0 0 1
    outer loop
      vertex 82 52.3 2
      vertex 10 86 2
      vertex 80.3737 51.6263 2
    endloop
  endfacet
  facet normal 0 0 1
    outer loop
      vertex 36 16 2
      vertex 10 86 2
      vertex 10 15 2
    endloop
  endfacet
  facet normal 0 0 1
    outer loop
      vertex 36 16 2
      vertex 10 15 2
      vertex 16 4 2
    endloop
  endfacet
  facet normal -0 0 1
    outer loop
      vertex 8 15 2
      vertex 16 4 2
      vertex 10 15 2
    endloop
  endfacet
  facet normal 0 0 1
    outer loop
      vertex 8 15 2
      vertex 0 10 2
      vertex 16 4 2
    endloop
  endfacet
  facet normal 0 0 1
    outer loop
      vertex 0 10 2
      vertex 8 15 2
      vertex 0 90 2
    endloop
  endfacet
  facet normal -0 0 1
    outer loop
      vertex 83.6263 48.3737 2
      vertex 132 16 2
      vertex 84.3 50 2
    endloop
  endfacet
  facet normal -0 0 1
    outer loop
      vertex 82 47.7 2
      vertex 132 16 2
      vertex 83.6263 48.3737 2
    endloop
  endfacet
  facet normal 0 0 1
    outer loop
      vertex 36 16 2
      vertex 82 47.7 2
      vertex 80.3737 48.3737 2
    endloop
  endfacet
  facet normal 0 0 1
    outer loop
      vertex 82 47.7 2
      vertex 36 16 2
      vertex 132 16 2
    endloop
  endfacet
  facet normal 0 0 1
    outer loop
      vertex 36 16 2
      vertex 80.3737 48.3737 2
      vertex 79.7 50 2
    endloop
  endfacet
  facet normal -0 0 1
    outer loop
      vertex 36 12 2
      vertex 132 3 2
      vertex 132 12 2
    endloop
  endfacet
  facet normal 0 0 1
    outer loop
      vertex 16 3 2
      vertex 36 12 2
      vertex 16 4 2
    endloop
  endfacet
  facet normal 0 0 1
    outer loop
      vertex 36 12 2
      vertex 16 3 2
      vertex 132 3 2
    endloop
  endfacet
  facet normal 0 -1 0
    outer loop
      vertex 16 0 0
      vertex 135 0 2
      vertex 16 0 2
    endloop
  endfacet
  facet normal 0 -1 -0
    outer loop
      vertex 135 0 2
      vertex 16 0 0
      vertex 135 0 0
    endloop
  endfacet
  facet normal -0.351123 0.936329 0
    outer loop
      vertex 16 100 0
      vertex 0 94 2
      vertex 16 100 2
    endloop
  endfacet
  facet normal -0.351123 0.936329 0
    outer loop
      vertex 0 94 2
      vertex 16 100 0
      vertex 0 94 0
    endloop
  endfacet
  facet normal 0 1 -0
    outer loop
      vertex 135 100 0
      vertex 16 100 2
      vertex 135 100 2
    endloop
  endfacet
  facet normal 0 1 0
    outer loop
      vertex 16 100 2
      vertex 135 100 0
      vertex 16 100 0
    endloop
  endfacet
  facet normal 0.382715 0.923867 -0
    outer loop
      vertex 83.6263 51.6263 2
      vertex 82 52.3 16
      vertex 83.6263 51.6263 16
    endloop
  endfacet
  facet normal 0.382715 0.923867 0
    outer loop
      vertex 82 52.3 16
      vertex 83.6263 51.6263 2
      vertex 82 52.3 2
    endloop
  endfacet
  facet normal 0.923867 0.382715 0
    outer loop
      vertex 84.3 50 16
      vertex 83.6263 51.6263 2
      vertex 83.6263 51.6263 16
    endloop
  endfacet
  facet normal 0.923867 0.382715 0
    outer loop
      vertex 83.6263 51.6263 2
      vertex 84.3 50 16
      vertex 84.3 50 2
    endloop
  endfacet
  facet normal -0.382715 0.923867 0
    outer loop
      vertex 82 52.3 2
      vertex 80.3737 51.6263 16
      vertex 82 52.3 16
    endloop
  endfacet
  facet normal -0.382715 0.923867 0
    outer loop
      vertex 80.3737 51.6263 16
      vertex 82 52.3 2
      vertex 80.3737 51.6263 2
    endloop
  endfacet
  facet normal 0 0 1
    outer loop
      vertex 83.6263 51.6263 16
      vertex 83.6263 48.3737 16
      vertex 84.3 50 16
    endloop
  endfacet
  facet normal 0 0 1
    outer loop
      vertex 82 52.3 16
      vertex 83.6263 48.3737 16
      vertex 83.6263 51.6263 16
    endloop
  endfacet
  facet normal 0 0 1
    outer loop
      vertex 82 52.3 16
      vertex 82 47.7 16
      vertex 83.6263 48.3737 16
    endloop
  endfacet
  facet normal -0 0 1
    outer loop
      vertex 80.3737 51.6263 16
      vertex 82 47.7 16
      vertex 82 52.3 16
    endloop
  endfacet
  facet normal 0 0 1
    outer loop
      vertex 80.3737 51.6263 16
      vertex 80.3737 48.3737 16
      vertex 82 47.7 16
    endloop
  endfacet
  facet normal 0 -0 1
    outer loop
      vertex 80.3737 48.3737 16
      vertex 80.3737 51.6263 16
      vertex 79.7 50 16
    endloop
  endfacet
  facet normal 0.923867 -0.382715 0
    outer loop
      vertex 83.6263 48.3737 16
      vertex 84.3 50 2
      vertex 84.3 50 16
    endloop
  endfacet
  facet normal 0.923867 -0.382715 0
    outer loop
      vertex 84.3 50 2
      vertex 83.6263 48.3737 16
      vertex 83.6263 48.3737 2
    endloop
  endfacet
  facet normal -0.923867 0.382715 0
    outer loop
      vertex 79.7 50 2
      vertex 80.3737 51.6263 16
      vertex 80.3737 51.6263 2
    endloop
  endfacet
  facet normal -0.923867 0.382715 0
    outer loop
      vertex 80.3737 51.6263 16
      vertex 79.7 50 2
      vertex 79.7 50 16
    endloop
  endfacet
  facet normal -0.382715 -0.923867 0
    outer loop
      vertex 80.3737 48.3737 2
      vertex 82 47.7 16
      vertex 80.3737 48.3737 16
    endloop
  endfacet
  facet normal -0.382715 -0.923867 -0
    outer loop
      vertex 82 47.7 16
      vertex 80.3737 48.3737 2
      vertex 82 47.7 2
    endloop
  endfacet
  facet normal 0.382715 -0.923867 0
    outer loop
      vertex 82 47.7 2
      vertex 83.6263 48.3737 16
      vertex 82 47.7 16
    endloop
  endfacet
  facet normal 0.382715 -0.923867 0
    outer loop
      vertex 83.6263 48.3737 16
      vertex 82 47.7 2
      vertex 83.6263 48.3737 2
    endloop
  endfacet
  facet normal -0.923867 -0.382715 0
    outer loop
      vertex 80.3737 48.3737 2
      vertex 79.7 50 16
      vertex 79.7 50 2
    endloop
  endfacet
  facet normal -0.923867 -0.382715 0
    outer loop
      vertex 79.7 50 16
      vertex 80.3737 48.3737 2
      vertex 80.3737 48.3737 16
    endloop
  endfacet
  facet normal 1 -0 0
    outer loop
      vertex 133 2 6
      vertex 133 98 2
      vertex 133 98 6
    endloop
  endfacet
  facet normal 1 0 0
    outer loop
      vertex 133 98 2
      vertex 133 2 6
      vertex 133 2 2
    endloop
  endfacet
  facet normal 0 0 1
    outer loop
      vertex 132 90 6
      vertex 133 98 6
      vertex 132 97 6
    endloop
  endfacet
  facet normal -0 0 1
    outer loop
      vertex 16 98 6
      vertex 132 97 6
      vertex 133 98 6
    endloop
  endfacet
  facet normal 0 0 1
    outer loop
      vertex 132 97 6
      vertex 16 98 6
      vertex 16 97 6
    endloop
  endfacet
  facet normal 0 0 1
    outer loop
      vertex 132 86 6
      vertex 133 98 6
      vertex 132 90 6
    endloop
  endfacet
  facet normal 0 0 1
    outer loop
      vertex 132 16 6
      vertex 133 98 6
      vertex 132 86 6
    endloop
  endfacet
  facet normal 0 0 1
    outer loop
      vertex 133 98 6
      vertex 132 16 6
      vertex 133 2 6
    endloop
  endfacet
  facet normal -0 0 1
    outer loop
      vertex 132 12 6
      vertex 133 2 6
      vertex 132 16 6
    endloop
  endfacet
  facet normal -0 0 1
    outer loop
      vertex 132 3 6
      vertex 133 2 6
      vertex 132 12 6
    endloop
  endfacet
  facet normal 0 0 1
    outer loop
      vertex 16 2 6
      vertex 132 3 6
      vertex 16 3 6
    endloop
  endfacet
  facet normal 0 0 1
    outer loop
      vertex 132 3 6
      vertex 16 2 6
      vertex 133 2 6
    endloop
  endfacet
  facet normal 1 0 0
    outer loop
      vertex 16 4 20
      vertex 16 3 6
      vertex 16 4 2
    endloop
  endfacet
  facet normal 1 -0 0
    outer loop
      vertex 16 2 20
      vertex 16 3 6
      vertex 16 4 20
    endloop
  endfacet
  facet normal 1 0 0
    outer loop
      vertex 16 3 6
      vertex 16 2 20
      vertex 16 2 6
    endloop
  endfacet
  facet normal 1 0 0
    outer loop
      vertex 16 4 2
      vertex 16 3 6
      vertex 16 3 2
    endloop
  endfacet
  facet normal 0 1 -0
    outer loop
      vertex 132 3 2
      vertex 16 3 6
      vertex 132 3 6
    endloop
  endfacet
  facet normal 0 1 0
    outer loop
      vertex 16 3 6
      vertex 132 3 2
      vertex 16 3 2
    endloop
  endfacet
  facet normal 0 -1 0
    outer loop
      vertex 16 2 2
      vertex 133 2 6
      vertex 16 2 6
    endloop
  endfacet
  facet normal 0 -1 -0
    outer loop
      vertex 133 2 6
      vertex 16 2 2
      vertex 133 2 2
    endloop
  endfacet
  facet normal 1 -0 0
    outer loop
      vertex 132 86 9
      vertex 132 90 6
      vertex 132 90 9
    endloop
  endfacet
  facet normal 1 0 0
    outer loop
      vertex 132 90 6
      vertex 132 86 9
      vertex 132 86 6
    endloop
  endfacet
  facet normal -1 0 0
    outer loop
      vertex 132 90 2
      vertex 132 97 6
      vertex 132 97 2
    endloop
  endfacet
  facet normal -1 -0 0
    outer loop
      vertex 132 97 6
      vertex 132 90 2
      vertex 132 90 6
    endloop
  endfacet
  facet normal -1 0 0
    outer loop
      vertex 132 16 2
      vertex 132 86 6
      vertex 132 86 2
    endloop
  endfacet
  facet normal -1 -0 0
    outer loop
      vertex 132 86 6
      vertex 132 16 2
      vertex 132 16 6
    endloop
  endfacet
  facet normal 1 -0 0
    outer loop
      vertex 132 12 9
      vertex 132 16 6
      vertex 132 16 9
    endloop
  endfacet
  facet normal 1 0 0
    outer loop
      vertex 132 16 6
      vertex 132 12 9
      vertex 132 12 6
    endloop
  endfacet
  facet normal -1 0 0
    outer loop
      vertex 132 3 2
      vertex 132 12 6
      vertex 132 12 2
    endloop
  endfacet
  facet normal -1 -0 0
    outer loop
      vertex 132 12 6
      vertex 132 3 2
      vertex 132 3 6
    endloop
  endfacet
  facet normal 0 1 -0
    outer loop
      vertex 133 98 2
      vertex 16 98 6
      vertex 133 98 6
    endloop
  endfacet
  facet normal 0 1 0
    outer loop
      vertex 16 98 6
      vertex 133 98 2
      vertex 16 98 2
    endloop
  endfacet
  facet normal 1 0 0
    outer loop
      vertex 16 98 20
      vertex 16 97 6
      vertex 16 98 6
    endloop
  endfacet
  facet normal 1 -0 0
    outer loop
      vertex 16 96 20
      vertex 16 97 6
      vertex 16 98 20
    endloop
  endfacet
  facet normal 1 0 0
    outer loop
      vertex 16 96 2
      vertex 16 97 6
      vertex 16 96 20
    endloop
  endfacet
  facet normal 1 0 0
    outer loop
      vertex 16 97 6
      vertex 16 96 2
      vertex 16 97 2
    endloop
  endfacet
  facet normal 0 -1 0
    outer loop
      vertex 16 97 2
      vertex 132 97 6
      vertex 16 97 6
    endloop
  endfacet
  facet normal 0 -1 -0
    outer loop
      vertex 132 97 6
      vertex 16 97 2
      vertex 132 97 2
    endloop
  endfacet
  facet normal 0 0 1
    outer loop
      vertex 0 92 20
      vertex 16 96 20
      vertex 16 98 20
    endloop
  endfacet
  facet normal 0 0 1
    outer loop
      vertex 16 96 20
      vertex 0 92 20
      vertex 0 90 20
    endloop
  endfacet
  facet normal -0 0 1
    outer loop
      vertex 0 8 20
      vertex 16 4 20
      vertex 0 10 20
    endloop
  endfacet
  facet normal 0 0 1
    outer loop
      vertex 16 4 20
      vertex 0 8 20
      vertex 16 2 20
    endloop
  endfacet
  facet normal -0.351123 0.936329 0
    outer loop
      vertex 16 98 6
      vertex 0 92 20
      vertex 16 98 20
    endloop
  endfacet
  facet normal -0.351123 0.936329 0
    outer loop
      vertex 0 92 2
      vertex 16 98 6
      vertex 16 98 2
    endloop
  endfacet
  facet normal -0.351123 0.936329 0
    outer loop
      vertex 16 98 6
      vertex 0 92 2
      vertex 0 92 20
    endloop
  endfacet
  facet normal 0.351123 -0.936329 0
    outer loop
      vertex 0 90 2
      vertex 16 96 20
      vertex 0 90 20
    endloop
  endfacet
  facet normal 0.351123 -0.936329 0
    outer loop
      vertex 16 96 20
      vertex 0 90 2
      vertex 16 96 2
    endloop
  endfacet
  facet normal 0.351123 0.936329 -0
    outer loop
      vertex 16 4 2
      vertex 0 10 20
      vertex 16 4 20
    endloop
  endfacet
  facet normal 0.351123 0.936329 0
    outer loop
      vertex 0 10 20
      vertex 16 4 2
      vertex 0 10 2
    endloop
  endfacet
  facet normal -0.351123 -0.936329 0
    outer loop
      vertex 0 8 20
      vertex 16 2 6
      vertex 16 2 20
    endloop
  endfacet
  facet normal -0.351123 -0.936329 0
    outer loop
      vertex 0 8 2
      vertex 16 2 6
      vertex 0 8 20
    endloop
  endfacet
  facet normal -0.351123 -0.936329 -0
    outer loop
      vertex 16 2 6
      vertex 0 8 2
      vertex 16 2 2
    endloop
  endfacet
  facet normal 1 -0 0
    outer loop
      vertex 10 15 9
      vertex 10 86 2
      vertex 10 86 9
    endloop
  endfacet
  facet normal 1 0 0
    outer loop
      vertex 10 86 2
      vertex 10 15 9
      vertex 10 15 2
    endloop
  endfacet
  facet normal 0 0 1
    outer loop
      vertex 132 90 9
      vertex 10 86 9
      vertex 132 86 9
    endloop
  endfacet
  facet normal -0 0 1
    outer loop
      vertex 8 90 9
      vertex 10 86 9
      vertex 132 90 9
    endloop
  endfacet
  facet normal 0 0 1
    outer loop
      vertex 8 15 9
      vertex 10 86 9
      vertex 8 90 9
    endloop
  endfacet
  facet normal 0 0 1
    outer loop
      vertex 10 86 9
      vertex 8 15 9
      vertex 10 15 9
    endloop
  endfacet
  facet normal -1 0 0
    outer loop
      vertex 8 15 2
      vertex 8 90 9
      vertex 8 90 2
    endloop
  endfacet
  facet normal -1 -0 0
    outer loop
      vertex 8 90 9
      vertex 8 15 2
      vertex 8 15 9
    endloop
  endfacet
  facet normal 0 -1 0
    outer loop
      vertex 8 15 2
      vertex 10 15 9
      vertex 8 15 9
    endloop
  endfacet
  facet normal 0 -1 -0
    outer loop
      vertex 10 15 9
      vertex 8 15 2
      vertex 10 15 2
    endloop
  endfacet
  facet normal -0 0 1
    outer loop
      vertex 36 16 9
      vertex 132 12 9
      vertex 132 16 9
    endloop
  endfacet
  facet normal 0 0 1
    outer loop
      vertex 132 12 9
      vertex 36 16 9
      vertex 36 12 9
    endloop
  endfacet
  facet normal -1 0 0
    outer loop
      vertex 36 12 2
      vertex 36 16 9
      vertex 36 16 2
    endloop
  endfacet
  facet normal -1 -0 0
    outer loop
      vertex 36 16 9
      vertex 36 12 2
      vertex 36 12 9
    endloop
  endfacet
  facet normal 0 1 -0
    outer loop
      vertex 132 16 6
      vertex 36 16 9
      vertex 132 16 9
    endloop
  endfacet
  facet normal 0 1 0
    outer loop
      vertex 36 16 2
      vertex 132 16 6
      vertex 132 16 2
    endloop
  endfacet
  facet normal 0 1 0
    outer loop
      vertex 132 16 6
      vertex 36 16 2
      vertex 36 16 9
    endloop
  endfacet
  facet normal 0 -1 0
    outer loop
      vertex 36 12 9
      vertex 132 12 6
      vertex 132 12 9
    endloop
  endfacet
  facet normal 0 -1 0
    outer loop
      vertex 36 12 2
      vertex 132 12 6
      vertex 36 12 9
    endloop
  endfacet
  facet normal 0 -1 -0
    outer loop
      vertex 132 12 6
      vertex 36 12 2
      vertex 132 12 2
    endloop
  endfacet
  facet normal 0 1 -0
    outer loop
      vertex 132 90 6
      vertex 8 90 9
      vertex 132 90 9
    endloop
  endfacet
  facet normal 0 1 0
    outer loop
      vertex 8 90 2
      vertex 132 90 6
      vertex 132 90 2
    endloop
  endfacet
  facet normal 0 1 0
    outer loop
      vertex 132 90 6
      vertex 8 90 2
      vertex 8 90 9
    endloop
  endfacet
  facet normal 0 -1 0
    outer loop
      vertex 10 86 9
      vertex 132 86 6
      vertex 132 86 9
    endloop
  endfacet
  facet normal 0 -1 0
    outer loop
      vertex 10 86 2
      vertex 132 86 6
      vertex 10 86 9
    endloop
  endfacet
  facet normal 0 -1 -0
    outer loop
      vertex 132 86 6
      vertex 10 86 2
      vertex 132 86 2
    endloop
  endfacet
endsolid OpenSCAD_Model
